# xmcd
#
# Track frame offsets:
#	150
#	15842
#	31486
#	50077
#	75333
#	92504
#	111538
#	127470
#	137805
#	157562
#	171306
#	191064
#	211031
#	231311
#	249352
#	265802
#	294038
#
# Disc length: 4123 seconds
#
# Revision: 1
# Processed by: cddbd v1.5.2PL0 Copyright (c) Steve Scherf et al.
# Submitted via: EasyCDDAExtractor 16.0.6.1
#
DISCID=e1101911
DTITLE=Various Artist - Sounds from the Soul Underground
DYEAR=2012
DGENRE=Funk
TTITLE0=The Delicious AllStars - Poker Nights Theme
TTITLE1=Jo Stance - Hey Girl!
TTITLE2=The Mighty Showstoppers - Shaft In Africa
TTITLE3=The Ariya Astrobeat Arkestra - Put Leg To Road
TTITLE4=Nick Van Gelder - Somethings Gotta Give
TTITLE5=Renegades Of Jazz - Cascade
TTITLE6=Speedometer - Again and Again
TTITLE7=Ray Camacho and The Tear Drops - Movin’ On
TTITLE8=Frootful - Colours
TTITLE9=Ray Lugo and The Boogaloo Destroyers - Sol El Ray
TTITLE10=The Andy Tolman Cartel - You What?
TTITLE11=Dub Colossus - Diaspora Square
TTITLE12=Los Charly’s Orchestra - Dana’s Dream
TTITLE13=Jessica Lauren Four - Mr G
TTITLE14=The Haggis Horns - Cockroach Grind
TTITLE15=The Qualitons - Kekfeny
TTITLE16=The Killer Meters - Cramp Your Style
EXTD=
EXTT0=
EXTT1=
EXTT2=
EXTT3=
EXTT4=
EXTT5=
EXTT6=
EXTT7=
EXTT8=
EXTT9=
EXTT10=
EXTT11=
EXTT12=
EXTT13=
EXTT14=
EXTT15=
EXTT16=
PLAYORDER=
